# xmcd
#
# Track frame offsets:
#	150
#	17257
#	30952
#	46215
#	60267
#	83197
#	136995
#	149860
#	164377
#	191977
#	206152
#	224192
#
# Disc length: 3271 seconds
#
# Revision: 0
# Processed by: cddbd v1.4PL0 Copyright (c) Steve Scherf et al.
# Submitted via: dBpowerAMP V4.0
#
DISCID=b00cc50c
DTITLE=The Juke Joints - One, Two, Five.. Live
DYEAR=1996
DGENRE=Blues
TTITLE0=Betty Lee
TTITLE1=Boppin' Through the City
TTITLE2=Chicken Shack
TTITLE3=Please Come Home
TTITLE4=When My Baby She Left Me
TTITLE5=Bad News On the Line
TTITLE6=The Loop
TTITLE7=I'm Working on it
TTITLE8=Long Long Dirty Trail
TTITLE9=Shake It
TTITLE10=Low Down Girl
TTITLE11=That's All I've Got To Say
EXTD=www.r0ot.nl
EXTT0=
EXTT1=
EXTT2=
EXTT3=
EXTT4=
EXTT5=
EXTT6=
EXTT7=
EXTT8=
EXTT9=
EXTT10=
EXTT11=
PLAYORDER=
